<?xml version="1.0" encoding="UTF-8"?>
<svg id="Layer_1" data-name="Layer 1" xmlns="http://www.w3.org/2000/svg" version="1.1" viewBox="0 0 300 300">
  <defs>
    <style>
      .cls-1 {
        fill: #299780;
      }

      .cls-1, .cls-2 {
        stroke-width: 0px;
      }

      .cls-2 {
        fill: #f3f3f3;
      }
    </style>
  </defs>
  <circle class="cls-1" cx="149.88" cy="149.92" r="132.38"/>
  <path class="cls-2" d="M125.69,227.56c-1.12-.61-2.34-1.09-3.34-1.84-1.62-1.23-2.4-3-2.58-5.02-.05-.54-.04-1.09-.04-1.64,0-45.24-.01-90.47.05-135.71,0-1.67.42-3.49,1.17-4.97,1.22-2.38,3.51-3.51,6.17-3.52,15.16-.04,30.32-.05,45.49,0,4.21.01,7.25,3.2,7.37,7.43.02.55,0,1.09,0,1.64,0,44.64-.04,89.28.05,133.92,0,4.71-1.32,8.13-6.02,9.71h-48.32ZM124.87,209.33c3.32,0,6.54-.02,9.76,0,1.67.01,2.71,1.04,2.68,2.52-.03,1.41-1.05,2.35-2.67,2.4-1.34.04-2.68.01-4.03.01-1.92,0-3.83,0-5.84,0,0,1.67,0,3.11,0,4.54,0,2.92.69,3.62,3.58,3.63,9.79,0,19.58.01,29.38.02.52,0,1.04,0,1.53,0V79.93c-.65,0-1.19,0-1.73,0-9.29,0-18.59,0-27.88,0-.8,0-1.59-.04-2.38.02-1.27.09-2.31.7-2.4,2.01-.14,2-.04,4.02-.04,6.16.7,0,1.24,0,1.78,0,5.07,0,10.14-.01,15.21.01,2.01,0,3.04.89,3.03,2.48,0,1.61-1.03,2.46-3.04,2.46-5.12,0-10.24,0-15.36,0-.53,0-1.05,0-1.57,0v7.1c3.28,0,6.45-.01,9.62,0,1.72.01,2.77.94,2.81,2.41.05,1.49-1.07,2.53-2.84,2.55-2.34.03-4.67,0-7.01,0-.87,0-1.74,0-2.6,0v7.02c2.96,0,5.83,0,8.7,0,2.56,0,3.77.83,3.74,2.57-.03,1.67-1.19,2.45-3.69,2.45-2.91,0-5.83,0-8.73,0v7.06c.66,0,1.2,0,1.74,0,4.82,0,9.64,0,14.46,0,1.9,0,3.03,1,2.99,2.56-.04,1.49-1.13,2.37-2.99,2.37-4.87,0-9.74,0-14.61,0-.53,0-1.06,0-1.6,0v7.09c.58,0,1.07,0,1.56,0,2.49,0,4.97-.02,7.46.01,1.61.02,2.57.98,2.58,2.46.01,1.45-.95,2.42-2.56,2.5-.84.04-1.69.01-2.53.01-2.16,0-4.33,0-6.52,0v7.01c.61,0,1.14,0,1.68,0,2.73,0,5.47-.03,8.2.03,1.55.03,2.58,1.11,2.58,2.52,0,1.39-1.07,2.4-2.62,2.47-.5.02-.99,0-1.49,0-2.77,0-5.53,0-8.32,0v7.06c.64,0,1.18,0,1.71,0,4.82,0,9.64,0,14.46,0,1.91,0,3.04.97,3.02,2.52-.02,1.49-1.12,2.41-2.96,2.41-4.87,0-9.74,0-14.61,0-.53,0-1.06,0-1.73,0,0,1.31,0,2.45,0,3.58s0,2.26,0,3.25c.21.16.25.21.29.21,2.88.02,5.76.02,8.65.05,1.88.02,2.98,1.2,2.74,2.89-.18,1.29-1.2,2.08-2.82,2.1-2.91.02-5.83,0-8.73,0v7.01c2.91,0,5.69,0,8.47,0,2.03,0,3.13.94,3.09,2.59-.03,1.59-1.07,2.41-3.09,2.41-2.82,0-5.64,0-8.52,0v7.08c.61,0,1.15,0,1.68,0,4.87,0,9.74,0,14.61,0,1.81,0,2.91.95,2.92,2.46.01,1.5-1.09,2.45-2.91,2.46-4.32.01-8.65,0-12.97,0-1.08,0-2.16,0-3.33,0v7.94ZM164.42,222.26c.24.1.33.17.42.17,2.04.02,4.07.03,6.11.03,3.32,0,3.92-.6,3.92-3.9,0-44.92,0-89.84,0-134.76,0-.59.15-1.3-.11-1.76-.43-.76-1.1-1.88-1.74-1.93-2.84-.21-5.7-.09-8.6-.09v142.24Z"/>
</svg>