<?xml version="1.0" encoding="UTF-8"?>
<svg id="Layer_1" data-name="Layer 1" xmlns="http://www.w3.org/2000/svg" version="1.1" viewBox="0 0 300 300">
  <defs>
    <style>
      .cls-1 {
        fill: #299780;
      }

      .cls-1, .cls-2 {
        stroke-width: 0px;
      }

      .cls-3 {
        fill: none;
        stroke: #fff;
        stroke-linecap: round;
        stroke-linejoin: round;
        stroke-width: 4.25px;
      }

      .cls-2 {
        fill: #fff;
      }
    </style>
  </defs>
  <circle class="cls-1" cx="150" cy="150.3" r="132.38"/>
  <g>
    <path class="cls-3" d="M181.94,161.79c.08-.42.14-.85.22-1.26,5.6-31.1,5.71-60.49-34.09-60.8-39.82.31-39.72,29.7-34.11,60.8.07.41.14.84.22,1.26-.07.41-.14.85-.22,1.28-5.6,31.08-5.71,60.48,34.11,60.79,39.8-.31,39.69-29.7,34.09-60.79-.08-.44-.14-.87-.22-1.28Z"/>
    <path class="cls-3" d="M166.61,134.84c0,2.61-2.13,4.74-4.74,4.74h-27.6c-2.61,0-4.74-2.14-4.74-4.74v-11.2c0-2.61,2.13-4.74,4.74-4.74h27.6c2.61,0,4.74,2.14,4.74,4.74v11.2Z"/>
    <g>
      <path class="cls-2" d="M148.07,185.65c-2.34,0-4.21,1.91-4.21,4.22s1.87,4.21,4.21,4.21,4.21-1.87,4.21-4.21-1.89-4.22-4.21-4.22Z"/>
      <path class="cls-2" d="M130.05,195.46c-1.97,1.13-2.66,3.68-1.52,5.64.73,1.28,2.11,2.07,3.58,2.07.73,0,1.43-.19,2.06-.54.96-.54,1.64-1.44,1.93-2.5.28-1.07.14-2.19-.41-3.13-1.09-1.91-3.74-2.63-5.65-1.53Z"/>
      <path class="cls-2" d="M164.01,184.82c.72,0,1.43-.2,2.05-.56.97-.53,1.66-1.44,1.93-2.51.3-1.06.15-2.16-.4-3.13-1.09-1.89-3.73-2.61-5.63-1.52-.97.55-1.66,1.42-1.93,2.5-.29,1.06-.15,2.17.39,3.15.75,1.28,2.11,2.07,3.59,2.07Z"/>
      <path class="cls-2" d="M130.29,189.22c1.87,0,3.5-1.28,3.99-3.06.3-1.07.14-2.2-.41-3.13-.55-.97-1.43-1.67-2.5-1.94-2.17-.57-4.48.77-5.06,2.9-.6,2.2.71,4.47,2.91,5.06.35.11.72.16,1.08.16Z"/>
      <path class="cls-2" d="M169.42,192.6c-.55-.97-1.45-1.65-2.51-1.94-2.16-.59-4.49.77-5.07,2.9-.3,1.08-.15,2.19.4,3.15.56.96,1.44,1.63,2.51,1.91.35.13.71.17,1.07.17,1.87,0,3.51-1.26,3.98-3.06.3-1.06.15-2.17-.39-3.13Z"/>
      <path class="cls-2" d="M142.88,175c.28-1.08.14-2.19-.41-3.14-1.1-1.93-3.76-2.64-5.66-1.52-1.97,1.13-2.64,3.65-1.52,5.66.74,1.28,2.11,2.06,3.58,2.06.73,0,1.44-.2,2.06-.55.96-.57,1.65-1.44,1.94-2.5Z"/>
      <path class="cls-2" d="M155.18,202.23c-.97.56-1.65,1.44-1.94,2.5-.28,1.08-.14,2.19.41,3.14.73,1.27,2.12,2.07,3.59,2.07.72,0,1.43-.2,2.06-.54,1.97-1.13,2.66-3.68,1.52-5.65-1.09-1.91-3.74-2.62-5.65-1.52Z"/>
      <path class="cls-2" d="M156.84,173.17c.28-1.07.14-2.18-.41-3.14-.55-.97-1.44-1.64-2.5-1.92-2.16-.59-4.49.77-5.06,2.92-.29,1.04-.15,2.16.4,3.12.55.98,1.44,1.67,2.51,1.94.36.1.71.14,1.08.14,1.87,0,3.5-1.25,3.99-3.05Z"/>
      <path class="cls-2" d="M144.36,203.64c-2.19-.58-4.5.77-5.07,2.93-.29,1.08-.15,2.18.41,3.13.55.95,1.43,1.65,2.5,1.95.36.09.71.14,1.08.14,1.85,0,3.5-1.26,3.98-3.05.3-1.06.15-2.17-.4-3.14-.55-.96-1.45-1.63-2.5-1.94Z"/>
    </g>
    <g>
      <path class="cls-3" d="M188.7,84.57c0,4.3-3.5,7.81-7.8,7.81s-7.82-3.51-7.82-7.81,3.5-7.82,7.82-7.82,7.8,3.49,7.8,7.82Z"/>
      <line class="cls-3" x1="180.9" y1="92.37" x2="180.9" y2="115.72"/>
    </g>
  </g>
</svg>