<?xml version="1.0" encoding="UTF-8"?>
<svg id="Layer_1" data-name="Layer 1" xmlns="http://www.w3.org/2000/svg" version="1.1" viewBox="0 0 300 300">
  <defs>
    <style>
      .cls-1 {
        fill: #299780;
        stroke-width: 0px;
      }

      .cls-2 {
        fill: none;
        stroke: #fff;
        stroke-linecap: round;
        stroke-linejoin: round;
        stroke-width: 4.25px;
      }
    </style>
  </defs>
  <circle class="cls-1" cx="151.72" cy="151.19" r="132.38"/>
  <path class="cls-2" d="M217.01,214.48c0,3.63-2.97,6.56-6.56,6.56h-52.14c-3.62,0-6.56-2.93-6.56-6.56v-52.14c0-3.6,2.94-6.54,6.56-6.54h52.14c3.59,0,6.56,2.94,6.56,6.54v52.14Z"/>
  <path class="cls-2" d="M167.37,211.63c-3.41,0-6.2-2.79-6.2-6.21v-33.99c0-3.41,2.78-6.22,6.2-6.22h34.01c3.41,0,6.2,2.81,6.2,6.22v33.99c0,3.42-2.79,6.21-6.2,6.21h-34.01Z"/>
  <path class="cls-2" d="M194.5,194.26c-2.04,5.31-6.76,6.79-10.13,6.79-3.64,0-9.98-1.73-9.98-12.64s7.8-12.73,9.98-12.73c0,0,7.22-.51,9.7,6.16"/>
  <path class="cls-2" d="M139.42,205.07c0,3.63-2.96,6.56-6.56,6.56h-52.13c-3.62,0-6.58-2.93-6.58-6.56v-52.13c0-3.6,2.96-6.55,6.58-6.55h52.13c3.6,0,6.56,2.94,6.56,6.55v52.13Z"/>
  <path class="cls-2" d="M89.8,202.23c-3.41,0-6.23-2.8-6.23-6.22v-33.99c0-3.43,2.81-6.21,6.23-6.21h33.96c3.45,0,6.23,2.78,6.23,6.21v33.99c0,3.42-2.78,6.22-6.23,6.22h-33.96Z"/>
  <line class="cls-2" x1="98.03" y1="191.03" x2="98.03" y2="166.78"/>
  <path class="cls-2" d="M98.03,166.78s13.99-2.98,13.99,6.12-13.99,6.12-13.99,6.12"/>
  <path class="cls-2" d="M98.03,179.96s15.96-2.98,15.96,6.12-15.96,6.12-15.96,6.12"/>
  <path class="cls-2" d="M188.41,142.78c-.73,3.54-4.19,5.86-7.72,5.13l-51.11-10.27c-3.56-.7-5.84-4.18-5.12-7.73l10.26-51.11c.69-3.52,4.19-5.84,7.72-5.11l51.11,10.28c3.56.7,5.83,4.16,5.15,7.69l-10.29,51.13Z"/>
  <path class="cls-2" d="M140.33,130.2c-3.36-.68-5.55-3.96-4.89-7.32l6.7-33.33c.7-3.34,3.99-5.55,7.34-4.86l33.32,6.71c3.34.67,5.55,3.96,4.86,7.3l-6.67,33.32c-.69,3.36-4,5.57-7.34,4.88l-33.32-6.71Z"/>
  <polyline class="cls-2" points="147.41 122.76 163.79 97.02 169.3 127.16"/>
  <line class="cls-2" x1="153.52" y1="113.14" x2="167.29" y2="116.15"/>
</svg>