<svg version="1.1" id="Capa_1" xmlns="http://www.w3.org/2000/svg" xmlns:xlink="http://www.w3.org/1999/xlink" x="0px" y="0px" viewBox="0 0 300 300" style="enable-background:new 0 0 56 56;" xml:space="preserve" width="300" height="300"><g><path d="m191.845 195.97 -25.596 -3.718 -11.448 -23.191c-1.8 -3.659 -7.805 -3.659 -9.605 0l-11.448 23.191 -25.596 3.718a5.357 5.357 0 0 0 -2.973 9.139l18.525 18.054 -4.371 25.495a5.368 5.368 0 0 0 7.773 5.646L150 242.266l22.891 12.037a5.357 5.357 0 0 0 7.773 -5.646l-4.371 -25.495 18.525 -18.054a5.368 5.368 0 0 0 -2.973 -9.139m-25.05 21.482a5.357 5.357 0 0 0 -1.537 4.741l3.016 17.571 -15.777 -8.298a5.357 5.357 0 0 0 -4.993 0l-15.777 8.298 3.016 -17.571a5.357 5.357 0 0 0 -1.537 -4.741l-12.771 -12.445 17.646 -2.566a5.357 5.357 0 0 0 4.034 -2.93L150 183.53l7.891 15.98a5.357 5.357 0 0 0 4.034 2.93l17.646 2.566z"/><path d="M261.402 145.146c-7.961 -22.334 -12.557 -45.252 -13.645 -68.111 -1.945 -40.687 -14.679 -66.712 -36.83 -75.262a26.518 26.518 0 0 0 -21.364 1.034c-6.364 3.204 -10.896 8.673 -12.766 15.402l-0.166 0.611c-0.22 0.857 -0.343 1.736 -0.466 2.609H166.071a5.357 5.357 0 1 0 0 10.714h10.982a26.786 26.786 0 0 0 8.121 12.396c3.493 3.005 7.189 7.886 10.018 11.807 3.579 4.961 5.941 10.061 7.018 15.166q0.252 1.184 0.455 2.379a57.964 57.964 0 0 1 -11.437 45.15c-9.262 11.823 -22.382 18.948 -36.948 20.079 -15.102 1.173 -29.577 -3.83 -40.655 -14.084A53.893 53.893 0 0 1 96.429 85.446c0.043 -13.998 5.796 -28.002 15.782 -38.405q1.361 -1.43 2.775 -2.625A26.25 26.25 0 0 0 123.129 32.143H139.286a5.357 5.357 0 1 0 0 -10.714h-15.418c-0.075 -0.434 -0.096 -0.879 -0.198 -1.312a32.143 32.143 0 0 0 -0.471 -1.907c-1.87 -6.734 -6.402 -12.204 -12.766 -15.402A26.464 26.464 0 0 0 89.068 1.768C66.9 10.329 54.161 36.386 52.232 77.132c-1.168 24.75 -5.32 46.195 -12.702 65.561a110.625 110.625 0 0 0 -7.061 48.107c4.484 59.261 54.375 107.196 113.598 109.13q1.982 0.07 3.97 0.07c30.771 0 59.732 -11.695 81.916 -33.166C255.107 244.425 267.857 214.35 267.857 182.143a109.821 109.821 0 0 0 -6.455 -36.996m-36.895 113.989c-21.037 20.363 -48.804 31.066 -78.096 30.091 -53.829 -1.757 -99.188 -45.348 -103.264 -99.23a100.179 100.179 0 0 1 6.391 -43.484c7.789 -20.443 12.166 -42.97 13.393 -68.871 1.195 -25.232 7.371 -57.145 29.995 -65.871a15.654 15.654 0 0 1 12.691 0.605 13.821 13.821 0 0 1 7.264 8.727l0.08 0.327H96.429a5.357 5.357 0 1 0 0 10.714h14.984c-0.884 1.479 -1.939 2.893 -3.348 4.087a48.214 48.214 0 0 0 -3.584 3.391C92.604 51.996 85.762 68.689 85.714 85.714c0 17.855 7.516 35.052 20.63 47.186 13.286 12.3 30.568 18.295 48.761 16.902 17.598 -1.361 33.423 -9.938 44.555 -24.155a68.732 68.732 0 0 0 13.029 -56.352c-1.387 -6.573 -4.355 -13.039 -8.818 -19.221 -3.171 -4.398 -7.371 -9.927 -11.721 -13.666A16.071 16.071 0 0 1 188.662 32.143H208.929a5.357 5.357 0 1 0 0 -10.714h-21.863c0.027 -0.118 0.032 -0.241 0.064 -0.359a13.821 13.821 0 0 1 7.254 -8.695 15.696 15.696 0 0 1 12.686 -0.605c22.607 8.721 28.784 40.586 29.989 65.78 1.141 23.914 5.936 47.866 14.25 71.196A99.107 99.107 0 0 1 257.143 182.143c0 29.277 -11.593 56.62 -32.636 76.993"/></g></svg>