<svg version="1.1" id="Capa_1" xmlns="http://www.w3.org/2000/svg" xmlns:xlink="http://www.w3.org/1999/xlink" x="0px" y="0px" viewBox="0 0 300 300" style="enable-background:new 0 0 60 60;" xml:space="preserve" width="300" height="300"><g><path d="M134.58 209.87a17.5 17.5 0 0 0 0 -24.745c-6.61 -6.61 -18.135 -6.61 -24.755 0A17.515 17.515 0 0 0 122.205 215c4.675 0 9.07 -1.825 12.375 -5.13M116.9 202.8A7.505 7.505 0 0 1 122.205 190c2 0 3.885 0.78 5.3 2.195a7.515 7.515 0 0 1 0 10.605c-2.825 2.83 -7.775 2.83 -10.605 0"/><path d="M159.825 215.125A17.515 17.515 0 0 0 172.205 245c4.675 0 9.07 -1.82 12.375 -5.125a17.5 17.5 0 0 0 0 -24.745c-6.61 -6.615 -18.135 -6.615 -24.755 -0.005m17.68 17.675c-2.83 2.835 -7.775 2.825 -10.605 0A7.505 7.505 0 0 1 172.205 220a7.505 7.505 0 0 1 5.3 12.8"/><path d="M124.825 255.125A17.515 17.515 0 0 0 137.205 285c4.675 0 9.07 -1.82 12.375 -5.125a17.5 17.5 0 0 0 0 -24.745c-6.61 -6.615 -18.135 -6.615 -24.755 -0.005m17.68 17.675c-2.83 2.835 -7.77 2.825 -10.605 0A7.505 7.505 0 0 1 137.205 260a7.505 7.505 0 0 1 5.3 12.8"/><path d="m220.465 273.835 -1.255 -5.025c-8.815 -35.25 -8.475 -82.4 0.84 -117.33 1.7 -6.37 0.37 -13.025 -3.65 -18.255S206.3 125 199.705 125v-5c5.61 0 10 -4.575 10 -10.42v-9.16c0 -5.845 -4.39 -10.42 -10 -10.42v-10.075A9.95 9.95 0 0 0 189.775 70h-0.76c-1.51 -5.65 -5.59 -10.7 -12.085 -14.785 -5.21 -3.275 -8.275 -15.085 -5.55 -22.035a25 25 0 0 0 -1.78 -21.87C165.86 5.05 159.67 0.995 152.64 0.17a25 25 0 0 0 -5.845 0c-7.06 0.82 -13.25 4.88 -16.99 11.14a25.1 25.1 0 0 0 -1.68 22.12c2.625 6.705 -0.435 18.51 -5.645 21.785 -6.495 4.085 -10.575 9.13 -12.085 14.785h-0.76a9.935 9.935 0 0 0 -9.925 9.925V90c-5.61 0 -10 4.575 -10 10.42v9.16c0 5.845 4.39 10.42 10 10.42v5a21 21 0 0 0 -15.8 7.7 21 21 0 0 0 -4.365 17.48l2.815 14.08c5.37 26.85 5.57 64.525 0.49 91.62l-3.595 19.175a21 21 0 0 0 4.49 17.325A21 21 0 0 0 99.95 300h100.09c6.53 0 12.58 -2.955 16.595 -8.1s5.415 -11.73 3.83 -18.065M127.8 63.68c10.185 -6.4 13.6 -23.78 9.52 -34.195a14.9 14.9 0 0 1 1.07 -13.045c2.165 -3.625 5.555 -5.875 9.58 -6.34a14 14 0 0 1 3.49 0c4 0.465 7.395 2.715 9.555 6.34 2.355 3.935 2.755 8.815 0.955 13.345 -3.96 10.115 -0.545 27.495 9.64 33.895q4.695 2.955 6.675 6.32H121.125q1.975 -3.365 6.675 -6.32M109.63 80h80.075v10H109.68zm-9.925 20.415c0 -0.23 0.045 -0.385 0.035 -0.42h99.875a0.8 0.8 0 0 1 0.09 0.42v9.16c0 0.235 -0.05 0.385 -0.01 0.42l-4.97 0.005H104.705c-0.14 0 -0.255 0.07 -0.395 0.08l-4.5 0.005a1 1 0 0 1 -0.105 -0.505zm-8.065 38.63a11 11 0 0 1 8.55 -4.05h4.515a5 5 0 0 0 5 -5v-10h80v10a5 5 0 0 0 5 5h5c3.46 0 6.66 1.57 8.765 4.32 2.11 2.745 2.81 6.24 1.915 9.585a195 195 0 0 0 -3.415 15.445c-14.75 13.765 -39.39 13.765 -53.43 -0.275 -16.11 -16.105 -43.185 -17.705 -62.03 -5.02l-2.165 -10.835c-0.65 -3.255 0.185 -6.6 2.295 -9.17m117.115 146.7a11 11 0 0 1 -8.715 4.255H99.95c-3.3 0 -6.4 -1.455 -8.51 -3.995s-2.965 -5.855 -2.36 -9.095l3.595 -19.175c4.82 -25.695 5.02 -60.445 0.805 -87.585 14.94 -13.11 39.11 -12.875 52.99 1 9.105 9.105 21.38 13.645 33.725 13.645a49.75 49.75 0 0 0 24.66 -6.56c-3.765 30.91 -2.24 65.445 4.65 93l1.255 5.025a11 11 0 0 1 -2.005 9.485"/></g></svg>