<svg xmlns="http://www.w3.org/2000/svg" id="Layer_1" viewBox="0 0 300 300"><defs fill="#85abb3"><style>.cls-1{fill:none;stroke:#85abb3;stroke-linecap:round;stroke-linejoin:round;stroke-width:4.25px;}.cls-2{fill:#85abb3;stroke-width:0px;}</style></defs><path class="cls-1" d="M144.09,79.14c-30.02,2.3-54.57,21.94-64.25,47.93-2.02-.79-4.19-1.26-6.5-1.26-9.8,0-17.74,7.94-17.74,17.74s7.94,17.76,17.74,17.76c.98,0,1.93-.14,2.88-.29,5,34.84,35.7,62.53,73.77,62.53s68.78-27.69,73.78-62.53c.95.14,1.91.29,2.86.29,9.8,0,17.76-7.94,17.76-17.76s-7.96-17.74-17.76-17.74c-2.29,0-4.46.47-6.49,1.26-8.31-22.31-27.57-39.95-51.85-45.95" fill="#85abb3"/><path class="cls-2" d="M126.22,146.84c0,3.69-2.98,6.67-6.66,6.67s-6.66-2.98-6.66-6.67,2.97-6.66,6.66-6.66,6.66,2.98,6.66,6.66Z" fill="#85abb3"/><path class="cls-2" d="M187.11,146.84c0,3.69-2.99,6.67-6.66,6.67s-6.67-2.98-6.67-6.67,2.97-6.66,6.67-6.66,6.66,2.98,6.66,6.66Z" fill="#85abb3"/><path class="cls-1" d="M193.6,123.05c-2.41-4.04-7.56-5.84-11.69-4.46" fill="#85abb3"/><path class="cls-1" d="M118.09,118.59c-4.13-1.38-9.26.42-11.68,4.46" fill="#85abb3"/><path class="cls-1" d="M142.44,168.52c.36-1.52,1.4-3,2.75-3.97,1.37-1.04,3.09-1.54,4.82-1.57,1.72.03,3.43.53,4.79,1.56,1.38,1,2.38,2.43,2.76,3.98" fill="#85abb3"/><path class="cls-1" d="M172.11,189.4c-4.83,5.24-12.92,8.68-22.1,8.68s-17.27-3.44-22.11-8.68" fill="#85abb3"/><path class="cls-1" d="M145.13,71.68c2.13,7.59-6.14,14.21-13.49,20.47.99,7.27,31.98,6.88,34.86-.28,9.97-24.82-23-41.81-32.06-24.26,6.62-2.81,10.09,1.72,10.69,4.08Z" fill="#85abb3"/></svg>