<svg version="1.1" id="Capa_1" xmlns="http://www.w3.org/2000/svg" xmlns:xlink="http://www.w3.org/1999/xlink" x="0px" y="0px" viewBox="0 0 300 300" style="enable-background:new 0 0 60 60;" xml:space="preserve" width="300" height="300"><g><path d="M300 95c0 -16.545 -13.455 -30 -30 -30s-30 13.455 -30 30c0 8.855 3.88 16.8 10 22.3V155H50v-37.7A29.9 29.9 0 0 0 60 95c0 -16.545 -13.455 -30 -30 -30s-30 13.455 -30 30c0 8.855 3.88 16.8 10 22.3V300h40v-20h200v20h40V117.3c6.12 -5.5 10 -13.445 10 -22.3M250 190h-25v-25h25zm-105 0h-25v-25h25zm10 -25h25v25h-25zm-45 25h-25v-25h25zm0 10v70h-25V200zm10 0h25v70h-25zm35 0h25v70h-25zm35 0h25v70h-25zm0 -10v-25h25v25zm-115 -25v25h-25v-25zM30 75c11.03 0 20 8.97 20 20a19.9 19.9 0 0 1 -7.995 15.895l-0.13 0.095a20 20 0 0 1 -2.56 1.6l-0.325 0.175q-1.285 0.65 -2.63 1.1l-0.46 0.145a20 20 0 0 1 -11.81 0l-0.455 -0.14a20 20 0 0 1 -2.63 -1.1l-0.325 -0.175a20 20 0 0 1 -2.56 -1.6l-0.07 -0.045A19.95 19.95 0 0 1 10 95c0 -11.03 8.97 -20 20 -20m10 215H20V123.25q2.325 0.83 4.815 1.27l0.285 0.045c1.6 0.265 3.23 0.435 4.9 0.435s3.3 -0.17 4.9 -0.435l0.29 -0.045q2.485 -0.44 4.81 -1.27V290m10 -90h25v70h-25zm175 70V200h25v70zm55 20h-20V123.25q2.325 0.83 4.81 1.27l0.29 0.045c1.6 0.265 3.23 0.435 4.9 0.435s3.3 -0.17 4.895 -0.435q0.15 -0.02 0.29 -0.045 2.49 -0.44 4.815 -1.27zm1.995 -179.1 -0.115 0.085a20 20 0 0 1 -2.555 1.595q-0.165 0.095 -0.335 0.18a20 20 0 0 1 -2.625 1.1l-0.465 0.145a19.9 19.9 0 0 1 -11.805 0l-0.465 -0.145a20 20 0 0 1 -2.625 -1.1l-0.335 -0.18a20 20 0 0 1 -2.555 -1.595l-0.06 -0.04A19.9 19.9 0 0 1 250 95c0 -11.03 8.97 -20 20 -20s20 8.97 20 20c0 6.51 -3.175 12.25 -8.005 15.9"/><path d="m82.74 110.61 -2.36 13.77a5 5 0 0 0 7.25 5.27L100 123.15l12.37 6.5a5 5 0 0 0 5.265 -0.38 5 5 0 0 0 1.985 -4.89l-2.36 -13.77 10.005 -9.75a4.99 4.99 0 0 0 -2.77 -8.53l-13.83 -2.01 -5.5 -11.145a42.5 42.5 0 0 1 39.83 -39.045v56.855a8 8 0 0 0 -2.34 2.13l-12.315 17.6c-1.88 2.69 -2.15 5.93 -0.725 8.67 1.49 2.845 4.58 4.615 8.07 4.615h24.635c3.49 0 6.575 -1.77 8.065 -4.625 1.43 -2.74 1.155 -5.98 -0.725 -8.67l-12.32 -17.6a8 8 0 0 0 -2.34 -2.125V40.705A42.525 42.525 0 0 1 189.875 80H180a5 5 0 0 0 -5 5v25a5 5 0 0 0 5 5h30a5 5 0 0 0 5 -5v-25a5 5 0 0 0 -5 -5h-10.125c-1.2 -25.26 -20.285 -45.86 -44.875 -49.4V5a5 5 0 0 0 -10 0v25.125c-26.42 1.255 -47.76 22.075 -49.795 48.285l-5.875 11.905 -13.83 2.01a5.01 5.01 0 0 0 -2.77 8.53zM205 105h-20v-15h20zm-45.24 15h-19.515L150 106.06zm-66.385 -20.165a5 5 0 0 0 3.765 -2.735L100 91.3l2.86 5.8a5 5 0 0 0 3.765 2.735l6.405 0.93 -4.63 4.515a5 5 0 0 0 -1.44 4.425l1.095 6.375 -5.73 -3.01a5 5 0 0 0 -4.65 0.005l-5.73 3.01 1.095 -6.375a5 5 0 0 0 -1.44 -4.425l-4.63 -4.515z"/></g></svg>