<svg version="1.1" id="Capa_1" xmlns="http://www.w3.org/2000/svg" xmlns:xlink="http://www.w3.org/1999/xlink" x="0px" y="0px" viewBox="0 0 300 300" style="enable-background:new 0 0 60 60;" xml:space="preserve" width="300" height="300"><path d="M288.16 62.5H285v-11.265A13.75 13.75 0 0 0 271.27 37.5H28.73A13.75 13.75 0 0 0 15 51.235V62.5h-3.16A11.85 11.85 0 0 0 0 74.34v36.32A11.85 11.85 0 0 0 11.84 122.5H15c0 6.495 0.485 12.9 1.36 19.19l-0.05 0.015 0.2 1.145a141.5 141.5 0 0 0 16.575 48.43l0.31 0.55c1.51 2.67 3.08 5.305 4.75 7.865l0.015 0.025q2.33 3.55 4.855 6.955 0.85 1.135 1.72 2.255 1.62 2.1 3.315 4.14 1.14 1.39 2.305 2.75 2.08 2.375 4.26 4.65c1.29 1.355 2.62 2.66 3.96 3.96q0.985 0.965 1.995 1.905 1.95 1.825 3.965 3.575 0.49 0.415 0.99 0.825 4.24 3.59 8.745 6.83 0.585 0.43 1.18 0.855 2.31 1.625 4.69 3.15 0.815 0.515 1.635 1.02a135 135 0 0 0 8.55 4.905c0.685 0.36 1.36 0.74 2.05 1.09q2.08 1.04 4.19 2 1.76 0.805 3.54 1.57c1.225 0.52 2.44 1.055 3.68 1.535q3.495 1.365 7.065 2.53c0.27 0.085 0.525 0.2 0.795 0.285l4.245 1.35 0.045 -0.095c10.92 3.075 22.345 4.74 34.065 4.74s23.145 -1.665 34.075 -4.74l0.045 0.095 4.245 -1.35c0.27 -0.085 0.525 -0.195 0.795 -0.285q3.575 -1.165 7.065 -2.53c1.24 -0.485 2.455 -1.015 3.68 -1.535q1.785 -0.76 3.54 -1.57 2.115 -0.965 4.19 -2c0.69 -0.35 1.365 -0.73 2.05 -1.09a135 135 0 0 0 8.55 -4.905q0.82 -0.5 1.635 -1.02 2.375 -1.53 4.69 -3.15 0.59 -0.425 1.18 -0.855a140 140 0 0 0 8.745 -6.83q0.495 -0.41 0.99 -0.825a150 150 0 0 0 5.96 -5.48q2.02 -1.94 3.96 -3.96 2.18 -2.275 4.26 -4.65 1.17 -1.36 2.305 -2.75 1.695 -2.035 3.315 -4.14 0.87 -1.12 1.72 -2.255 2.525 -3.4 4.855 -6.955l0.015 -0.025c1.67 -2.56 3.24 -5.195 4.75 -7.865l0.31 -0.55A141.5 141.5 0 0 0 283.5 142.85l0.2 -1.145 -0.05 -0.015c0.865 -6.29 1.35 -12.695 1.35 -19.19h3.16A11.85 11.85 0 0 0 300 110.66v-36.32a11.85 11.85 0 0 0 -11.84 -11.84m-276.32 50A1.85 1.85 0 0 1 10 110.66v-36.32c0 -1.015 0.825 -1.84 1.84 -1.84H50v40H11.84m77.03 -26.345c0.145 0.435 0.295 0.87 0.41 1.32a19 19 0 0 1 0.61 3.955q0.055 1.095 -0.005 2.18 -0.055 1.005 -0.2 1.985a20 20 0 0 1 -0.435 2.04 20 20 0 0 1 -0.565 1.82 20 20 0 0 1 -0.93 2.065c-0.25 0.485 -0.495 0.975 -0.78 1.435q-0.725 1.15 -1.62 2.215c-0.26 0.315 -0.5 0.645 -0.78 0.945a20 20 0 0 1 -2.34 2.1c-0.235 0.185 -0.445 0.395 -0.69 0.57a20 20 0 0 1 -3.055 1.765c-0.155 0.075 -0.295 0.175 -0.45 0.245a20 20 0 0 1 -3.67 1.2q-0.115 0.04 -0.23 0.07A20 20 0 0 1 70 112.5h-10v-40h8.825c9.2 0 17.23 5.74 20.045 13.655m-36.78 116.03 -0.36 -0.47a133.5 133.5 0 0 1 -23.915 -52.65c4.93 -1.04 9.85 -1.565 14.685 -1.565C82.475 147.5 115 180.025 115 220a71.5 71.5 0 0 1 -4.665 25.47l-1.115 -0.4q-2.55 -0.95 -5.04 -2.01c-0.665 -0.28 -1.335 -0.54 -1.99 -0.835a120 120 0 0 1 -6.195 -2.97c-0.895 -0.46 -1.77 -0.955 -2.655 -1.435a125 125 0 0 1 -6.58 -3.835 125 125 0 0 1 -3.37 -2.205c-0.89 -0.6 -1.795 -1.18 -2.675 -1.8a130 130 0 0 1 -5.255 -3.94c-0.815 -0.64 -1.6 -1.315 -2.4 -1.975a140 140 0 0 1 -5.52 -4.82q-2.075 -1.93 -4.07 -3.945 -0.54 -0.53 -1.08 -1.07a135 135 0 0 1 -5.15 -5.655q-0.3 -0.35 -0.585 -0.7a140 140 0 0 1 -4.565 -5.69M185 220c0 -39.975 32.525 -72.5 72.5 -72.5 4.835 0 9.755 0.525 14.685 1.565a133.5 133.5 0 0 1 -23.915 52.65l-0.36 0.47a130 130 0 0 1 -4.565 5.68q-0.29 0.35 -0.585 0.7a135 135 0 0 1 -5.15 5.655q-0.535 0.54 -1.08 1.07a130 130 0 0 1 -6.25 5.915q-1.645 1.455 -3.34 2.85c-0.8 0.66 -1.59 1.335 -2.4 1.975q-2.58 2.035 -5.255 3.94c-0.875 0.62 -1.78 1.2 -2.675 1.8q-1.67 1.13 -3.37 2.205a120 120 0 0 1 -6.58 3.835c-0.885 0.48 -1.76 0.975 -2.655 1.435q-3.05 1.57 -6.195 2.97c-0.66 0.295 -1.33 0.555 -1.99 0.835q-2.495 1.06 -5.04 2.01 -0.55 0.2 -1.115 0.4A71.5 71.5 0 0 1 185 220m88.88 -80.795A81.5 81.5 0 0 0 257.5 137.5C212.01 137.5 175 174.51 175 220c0 9.775 1.82 19.31 5.215 28.47 -9.715 2.62 -19.84 4.03 -30.215 4.03s-20.5 -1.41 -30.215 -4.03A81.5 81.5 0 0 0 125 220c0 -45.49 -37.01 -82.5 -82.5 -82.5 -5.405 0 -10.895 0.575 -16.38 1.705A130 130 0 0 1 25 122.5h45q1.59 0 3.145 -0.17l0.035 -0.005a30 30 0 0 0 8.97 -2.42l0.02 -0.01q1.385 -0.62 2.695 -1.375l0.23 -0.14a30 30 0 0 0 2.7 -1.785 30 30 0 0 0 2.01 -1.62l0.435 -0.395a30 30 0 0 0 1.78 -1.775q0.115 -0.11 0.23 -0.23 0.09 -0.11 0.18 -0.225 0.84 -0.945 1.595 -1.965 0.17 -0.22 0.33 -0.445 0.785 -1.095 1.465 -2.255l0.175 -0.29c2.51 -4.365 3.975 -9.4 3.995 -14.78v-0.04l0.005 -0.085c0 -16.545 -13.455 -30 -30 -30H25v-11.265c0 -2.05 1.675 -3.725 3.73 -3.725h242.54c2.055 0 3.73 1.675 3.73 3.735V62.5h-45c-16.545 0 -30 13.455 -30 30l0.005 0.085v0.04a29.8 29.8 0 0 0 3.995 14.78l0.175 0.29q0.685 1.16 1.465 2.255 0.16 0.225 0.33 0.445 0.755 1.015 1.595 1.965 0.09 0.11 0.18 0.225 0.11 0.115 0.23 0.23 0.855 0.92 1.78 1.775l0.435 0.395q0.965 0.855 2.01 1.62l0.375 0.28q1.125 0.8 2.325 1.505l0.23 0.14q1.31 0.75 2.695 1.375l0.02 0.01a30 30 0 0 0 8.97 2.42l0.035 0.005q1.56 0.155 3.15 0.16h45c0 5.65 -0.405 11.22 -1.12 16.705M240 112.5h-10q-2.105 0 -4.135 -0.44c-0.08 -0.015 -0.15 -0.055 -0.23 -0.07a20 20 0 0 1 -3.67 -1.2c-0.155 -0.07 -0.295 -0.17 -0.45 -0.245a20 20 0 0 1 -3.055 -1.765c-0.245 -0.175 -0.455 -0.385 -0.69 -0.57a20 20 0 0 1 -2.34 -2.1c-0.28 -0.3 -0.52 -0.63 -0.78 -0.945a20 20 0 0 1 -1.625 -2.215c-0.285 -0.46 -0.53 -0.945 -0.78 -1.43a20 20 0 0 1 -0.93 -2.065 20 20 0 0 1 -0.565 -1.82 20 20 0 0 1 -0.44 -2.04 21.13 21.13 0 0 1 -0.01 -6.11q0.15 -1.02 0.415 -2.005 0.185 -0.67 0.41 -1.32c2.82 -7.915 10.845 -13.655 20.05 -13.655H240zm50 -1.84a1.85 1.85 0 0 1 -1.84 1.84H250v-40h38.16c1.015 0 1.84 0.825 1.84 1.84z"/></svg>