<?xml version="1.0" encoding="UTF-8"?><svg id="Layer_1" xmlns="http://www.w3.org/2000/svg" viewBox="0 0 300 300"><defs><style>.cls-1{fill:none;stroke:#fff;stroke-linecap:round;stroke-linejoin:round;stroke-width:5.67px;}.cls-2{fill:#fff;stroke-width:0px;}</style></defs><path class="cls-1" d="M225.14,83.77H74.84c-1.77,0-3.15,1.42-3.15,3.19v60.12c0,38.34,35.21,68.12,66.84,69.15h23.01c31.52-1.03,66.78-30.81,66.78-69.15v-60.12c0-1.77-1.41-3.19-3.17-3.19Z"/><path class="cls-1" d="M216.26,146.96c-10.76.66-23.35,5.05-32.35,14.11-9.01,9.08-14.46,22.78-10.91,42.1"/><path class="cls-1" d="M127.71,203.42c3.5-19.31-2.07-33.09-11.26-42.22-9.16-9.13-21.91-13.58-32.71-14.25"/><path class="cls-1" d="M198.86,96.8h28.17v34.86h-28.17c-8.12,0-14.75-7.82-14.75-17.43s6.63-17.43,14.75-17.43Z"/><path class="cls-1" d="M101.18,96.8h-28.21v34.86h28.21c8.08,0,14.73-7.82,14.73-17.43s-6.65-17.43-14.73-17.43Z"/><path class="cls-2" d="M105.81,114.23c0,3.61-2.94,6.53-6.52,6.53s-6.55-2.92-6.55-6.53,2.92-6.52,6.55-6.52,6.52,2.93,6.52,6.52Z"/><path class="cls-2" d="M207.26,114.23c0,3.61-2.92,6.53-6.52,6.53s-6.52-2.92-6.52-6.53,2.9-6.52,6.52-6.52,6.52,2.93,6.52,6.52Z"/></svg>