<?xml version="1.0" encoding="UTF-8"?><svg id="Layer_1" xmlns="http://www.w3.org/2000/svg" viewBox="0 0 300 300"><defs><style>.cls-1{fill:none;stroke:#fff;stroke-linecap:round;stroke-linejoin:round;stroke-width:5.67px;}</style></defs><path class="cls-1" d="M182.71,106.47c0,1-.42,1.9-1.06,2.53-.65.66-1.55,1.08-2.55,1.08h-57.44c-.99,0-1.88-.42-2.55-1.08-.65-.63-1.06-1.54-1.06-2.53v-11.99c0-.99.41-1.88,1.06-2.54.67-.65,1.56-1.05,2.55-1.05h57.44c1,0,1.9.4,2.55,1.05.64.66,1.06,1.55,1.06,2.54v11.99Z"/><path class="cls-1" d="M170.04,89.42c-.84-11.38-16.87-8.01-14.16-16.17.22-.28.38-.55.56-.83,7.03-9.63,4.96-19.52-6.44-18.91-11.37-.62-13.45,9.27-6.44,18.91.22.29.37.55.58.84,2.69,8.15-13.33,4.79-14.16,16.15"/><path class="cls-1" d="M125.9,110.53c-3.03,1.37-5.88,3.32-8.21,5.72-2.39,2.42-4.3,5.28-5.5,8.44-1.18,3.18-1.7,6.64-1.23,10.25.52,5.46.77,13.02.86,21.3.11,8.27.03,17.2-.11,25.5-.11,8.27-.31,15.85-.47,21.39-.15,5.52-.29,8.97-.29,8.97,0,3.99.73,7.69,1.99,10.95,1.29,3.3,3.14,6.18,5.41,8.52,2.23,2.4,4.89,4.26,7.8,5.55,2.91,1.27,6.05,1.96,9.3,1.96h29.11c3.22,0,6.37-.69,9.27-1.96,2.9-1.29,5.56-3.15,7.83-5.55,2.24-2.35,4.11-5.23,5.38-8.52,1.27-3.25,1.98-6.96,1.98-10.95,0,0-.12-3.46-.27-8.97-.15-5.54-.36-13.12-.49-21.39-.13-8.3-.19-17.23-.1-25.5.1-8.28.37-15.83.85-21.3.47-3.62-.03-7.07-1.2-10.25-1.22-3.16-3.13-6.02-5.48-8.44-2.38-2.4-5.22-4.35-8.25-5.72"/><line class="cls-1" x1="188.15" y1="142.58" x2="169.03" y2="142.58"/><line class="cls-1" x1="188.15" y1="155.76" x2="169.03" y2="155.76"/><line class="cls-1" x1="188.15" y1="168.95" x2="169.03" y2="168.95"/><line class="cls-1" x1="188.15" y1="182.13" x2="169.03" y2="182.13"/><line class="cls-1" x1="188.15" y1="195.3" x2="169.03" y2="195.3"/></svg>