<svg xmlns="http://www.w3.org/2000/svg" id="Layer_1" viewBox="0 0 300 300"><defs fill="#85abb3"><style>.cls-1{fill:none;stroke:#85abb3;stroke-linecap:round;stroke-linejoin:round;stroke-width:4.25px;}.cls-2{fill:#85abb3;stroke-width:0px;}</style></defs><path class="cls-1" d="M225.15,143.38c-2.35,0-4.58.48-6.64,1.29-10.52-28.23-38.22-49.12-71.56-49.12s-61.03,20.89-71.55,49.12c-2.07-.81-4.3-1.29-6.63-1.29-10.02,0-18.11,8.1-18.11,18.11s8.08,18.1,18.11,18.1c.99,0,1.96-.13,2.91-.29,5.11,35.55,36.42,63.77,75.27,63.77s70.16-28.22,75.27-63.77c.94.15,1.91.29,2.93.29,10,0,18.11-8.11,18.11-18.1s-8.1-18.11-18.11-18.11Z" fill="#85abb3"/><path class="cls-2" d="M122.71,164.84c0,3.76-3.03,6.8-6.81,6.8s-6.81-3.04-6.81-6.8,3.06-6.8,6.81-6.8,6.81,3.03,6.81,6.8Z" fill="#85abb3"/><path class="cls-2" d="M184.82,164.84c0,3.76-3.06,6.8-6.79,6.8s-6.81-3.04-6.81-6.8,3.03-6.8,6.81-6.8,6.79,3.03,6.79,6.8Z" fill="#85abb3"/><path class="cls-1" d="M189.63,146.99c-2.45-4.12-7.69-5.96-11.92-4.54" fill="#85abb3"/><path class="cls-1" d="M116.18,142.45c-4.21-1.42-9.44.42-11.9,4.54" fill="#85abb3"/><path class="cls-1" d="M139.24,186.95c.39-1.57,1.44-3.06,2.82-4.06,1.38-1.06,3.15-1.58,4.91-1.6,1.75.02,3.52.54,4.91,1.59,1.4,1.02,2.41,2.48,2.8,4.07" fill="#85abb3"/><path class="cls-1" d="M169.5,208.25c-4.91,5.34-13.18,8.84-22.54,8.84s-17.62-3.51-22.54-8.84" fill="#85abb3"/><path class="cls-1" d="M177.31,58.47l-23.39,9.81c-1.62-2.41-4.11-3.97-6.95-3.97s-5.34,1.56-6.94,3.97l-23.4-9.81c-4.48-1.88-8.17,2-8.17,8.59v15.01c0,6.59,3.69,10.45,8.17,8.57l23.4-9.81c1.6,2.4,4.1,3.99,6.94,3.99s5.33-1.59,6.95-3.99l23.39,9.81c4.49,1.89,8.15-1.97,8.15-8.57v-15.01c0-6.58-3.66-10.47-8.15-8.59Z" fill="#85abb3"/><path class="cls-1" d="M145.73,96.36c2.02,20.24-21.36,24.13-21.36,24.13" fill="#85abb3"/><path class="cls-1" d="M150.73,96.65c12.08,22.37-5.92,27.39-5.92,27.39" fill="#85abb3"/></svg>