<?xml version="1.0" encoding="UTF-8"?><svg id="Layer_1" xmlns="http://www.w3.org/2000/svg" viewBox="0 0 300 300"><defs><style>.cls-1{fill:none;stroke:#87acb4;stroke-miterlimit:10;stroke-width:5.67px;}</style></defs><path class="cls-1" d="M136.59,149.62c-5.22-.78-11.65.93-17.28,2.51-1.02.27-6.6,2.62-4.66-3.52.19-.33.4-.62.61-.98,2.24-4.23,6.98-11.59,10.26-16.89,8.87-14.26,14.1-27.86,7.49-31.48-5.01-2.79-11.94,5.84-20.85,16.79-2.25,2.77-4.82,5.77-6.86,8.06-1.29,1.44-2.26,1.77-2.97,1.67-1.92-.79-1.16-3.76-.4-5.5,1.48-3.37,2.92-7.08,4.42-11.01,6.04-15.66,8.9-29.72,1.39-32.05-7.17-2.21-12.49,8.83-18.52,24.48-1.66,4.26-3.32,7.35-5.04,11.6-.39.9-.79,2.17-1.42,2.83-1.08.09-1.9.07-1.99-.92-.28-2.59.23-7.3.56-9.84,1.92-15.98,3.41-28.73-4.43-28.59-6.5.15-7.49,7.59-11.27,24.01-.9,4-2.27,16.22-4.5,18.15-1.54-.58-2.95-4.48-3.46-5.94-3.44-9.36-5.61-23.59-10.2-23.77-10.38-.44-6.06,19.92-4.59,34.8.66,6.76-.94,18.35-2.05,27.14-.44,2.18-1.1,7.41-.56,11.72,1.15,10.81,7.01,20.2,16.54,24.54l11.16,5.12c11.85,5.38,25.73,3.05,35.25-6.51,4.22-2.85,9.5-6.72,16.19-11.83,13.61-10.38,30.82-7.57,30.13-15.06-.36-4.25-3.86-8.15-12.94-9.55Z"/><path class="cls-1" d="M259.25,190.58c-1.11-8.78-2.72-20.44-2.05-27.2,1.45-14.87,5.77-35.24-4.61-34.82-4.57.19-6.77,14.43-10.22,23.81-.5,1.42-1.89,5.38-3.46,5.93-2.2-1.91-3.57-14.16-4.5-18.13-3.78-16.43-4.76-23.9-11.28-24.04-7.8-.16-6.33,12.6-4.4,28.6.31,2.55.83,7.27.58,9.83-.09,1.02-.94,1.04-2,.94-.64-.66-1.03-1.95-1.4-2.85-1.74-4.24-3.43-7.32-5.06-11.57-6.06-15.68-11.38-26.73-18.53-24.51-7.48,2.32-4.64,16.4,1.39,32.06,1.51,3.92,2.96,7.65,4.43,10.99.77,1.77,1.49,4.73-.41,5.51-.73.11-1.67-.21-2.96-1.67-2.07-2.27-4.63-5.29-6.85-8.05-8.91-10.97-15.86-19.56-20.86-16.82-6.62,3.66-1.39,17.25,7.47,31.49,3.3,5.29,8.04,12.67,10.3,16.91.18.36.38.62.58.94,1.96,6.14-3.65,3.81-4.64,3.54-5.64-1.58-12.07-3.29-17.32-2.51-9.05,1.42-12.57,5.3-12.94,9.54-.68,7.51,16.55,4.7,30.13,15.07,6.72,5.12,12.01,8.96,16.21,11.84,9.51,9.54,23.38,11.88,35.24,6.49l11.16-5.12c9.54-4.32,15.41-13.73,16.55-24.52.46-4.07-.13-9.52-.54-11.67Z"/></svg>