<svg version="1.1" id="Capa_1" xmlns="http://www.w3.org/2000/svg" xmlns:xlink="http://www.w3.org/1999/xlink" x="0px" y="0px" viewBox="0 0 300 300" style="enable-background:new 0 0 48.988 48.988;" xml:space="preserve" width="300" height="300"><g><path d="M285.407 25.843a73.487 73.487 0 0 0 -9.229 -9.229C259.668 2.835 238.105 -1.439 217.045 4.887c-22.04 6.62 -39.12 23.638 -45.697 45.538a208.214 208.214 0 0 1 -8.439 23.24c-40.345 -33.682 -91.296 -63.818 -110.813 -44.295 -10.337 10.337 -7.588 30.791 7.967 59.145 1.623 2.958 3.393 5.977 5.248 9.033 -13.093 5.205 -24.851 12.744 -34.87 22.757 -40.59 40.59 -40.59 106.636 0 147.232a103.801 103.801 0 0 0 73.616 30.442c26.664 0 53.321 -10.147 73.616 -30.442 10.019 -10.019 17.551 -21.777 22.757 -34.87 3.05 1.856 6.075 3.625 9.033 5.248 17.11 9.382 31.342 14.11 42.212 14.11 7.147 0 12.836 -2.039 16.939 -6.142 18.807 -18.807 -7.863 -66.218 -40.743 -106.544a208.214 208.214 0 0 1 23.736 -8.659 67.915 67.915 0 0 0 45.538 -45.697c6.314 -21.079 2.045 -42.629 -11.74 -59.139M135.272 181.563q0.576 0.557 1.151 1.108c0.459 0.429 0.919 0.833 1.372 1.262l0.386 0.355q3.491 3.258 6.994 6.412c0.71 0.643 1.421 1.311 2.131 1.941l0.171 0.147 0.753 0.649q4.164 3.68 8.329 7.19c0.478 0.404 0.961 0.833 1.439 1.231q4.593 3.827 9.168 7.428l2.058 1.629a67.057 67.057 0 0 1 -17.539 30.632c-26.266 26.259 -68.999 26.266 -95.27 0 -26.266 -26.266 -26.266 -69.005 0 -95.27a67.057 67.057 0 0 1 30.632 -17.539q0.808 1.029 1.629 2.058 3.607 4.575 7.428 9.168l1.231 1.439q3.515 4.164 7.19 8.329l0.649 0.753 0.147 0.171c0.631 0.71 1.304 1.421 1.941 2.131q3.148 3.503 6.412 6.994l0.355 0.386c0.429 0.459 0.833 0.919 1.262 1.372q0.551 0.576 1.108 1.151 4.556 4.807 9.296 9.566c4.74 4.758 6.375 6.265 9.578 9.308m33.743 77.309c-35.813 35.819 -94.088 35.825 -129.907 0s-35.819 -94.094 0 -129.907a90.389 90.389 0 0 1 32.843 -21.03c0.802 1.194 1.672 2.413 2.505 3.619q1.929 2.811 3.956 5.64l0.802 1.145A79.244 79.244 0 0 0 47.767 137.623c-31.036 31.036 -31.036 81.547 0 112.589a79.366 79.366 0 0 0 56.291 23.277 79.366 79.366 0 0 0 75.576 -54.724c0.386 0.282 0.765 0.527 1.145 0.802q2.835 2.027 5.64 3.956c1.206 0.833 2.425 1.702 3.619 2.505a90.328 90.328 0 0 1 -21.024 32.843m90.935 -21.654c-4.501 4.495 -18.568 4.226 -44.601 -10.043a244.958 244.958 0 0 1 -16.639 -10.129 293.95 293.95 0 0 1 -8.916 -6.106c-1.684 -1.194 -3.368 -2.382 -5.071 -3.632 -1.684 -1.243 -3.38 -2.554 -5.077 -3.852l-0.759 -0.582a416.429 416.429 0 0 1 -9.027 -7.159q-1.108 -0.894 -2.229 -1.813a459.296 459.296 0 0 1 -8.586 -7.306q-1.023 -0.882 -2.045 -1.77l-1.586 -1.415a465.42 465.42 0 0 1 -7.385 -6.718l-1.145 -1.047q-1.194 -1.102 -2.388 -2.229a526.66 526.66 0 0 1 -10.135 -9.823 508.288 508.288 0 0 1 -9.823 -10.135q-1.121 -1.194 -2.229 -2.388l-1.047 -1.145a465.42 465.42 0 0 1 -6.718 -7.385l-1.415 -1.586 -1.77 -2.045a434.8 434.8 0 0 1 -7.306 -8.586c-0.619 -0.747 -1.2 -1.488 -1.813 -2.229q-3.68 -4.507 -7.159 -9.027l-0.582 -0.759c-1.298 -1.696 -2.609 -3.393 -3.852 -5.077 -1.249 -1.696 -2.437 -3.38 -3.632 -5.071a293.962 293.962 0 0 1 -6.106 -8.916 244.958 244.958 0 0 1 -10.129 -16.639c-14.269 -26.021 -14.544 -40.1 -10.043 -44.601 1.813 -1.813 4.691 -2.725 8.5 -2.725 16.075 0 48.759 16.265 88.13 49.684 -0.612 1.121 -1.213 2.333 -1.837 3.393l-0.165 0.282a91.859 91.859 0 0 1 -4.385 6.693l-0.147 0.202a67.363 67.363 0 0 1 -4.526 5.561l-0.196 0.208a42.868 42.868 0 0 1 -4.605 4.354l-0.3 0.233a30.62 30.62 0 0 1 -4.715 3.172l-7.692 4.146 6.516 5.818a482.708 482.708 0 0 1 47.124 48.281l5.971 7.043 0.006 0.006 4.164 -8.243c0.821 -1.617 1.868 -3.221 3.086 -4.813l0.208 -0.288q1.862 -2.37 4.299 -4.685l0.22 -0.214q2.48 -2.333 5.524 -4.593l0.233 -0.171q3.068 -2.266 6.687 -4.446l0.306 -0.178c1.066 -0.637 2.296 -1.249 3.429 -1.874 38.532 46.615 52.397 83.347 43.376 92.368m25.457 -155.763a55.728 55.728 0 0 1 -37.332 37.497 217.4 217.4 0 0 0 -28.342 10.631l-0.104 -0.122 -4.305 2.156c-0.257 0.129 -0.465 0.263 -0.717 0.392 -1.396 0.71 -2.725 1.494 -4.091 2.247 -6.865 3.797 -12.726 7.82 -17.447 12.083 -0.331 0.294 -0.71 0.563 -1.029 0.863q-3.135 2.939 -5.591 6.001a496.04 496.04 0 0 0 -8.696 -9.596 502.164 502.164 0 0 0 -13.387 -13.993 496.04 496.04 0 0 0 -15.077 -14.453c2.015 -1.641 3.987 -3.534 5.91 -5.616 0.349 -0.38 0.668 -0.833 1.01 -1.225 4.036 -4.575 7.857 -10.166 11.47 -16.682 0.863 -1.555 1.745 -3.086 2.554 -4.685 0.122 -0.239 0.251 -0.435 0.367 -0.674l2.107 -4.244 -0.11 -0.098a217.4 217.4 0 0 0 10.472 -27.999 55.728 55.728 0 0 1 37.497 -37.325c17.067 -5.12 34.466 -1.696 47.761 9.394A61.239 61.239 0 0 1 276.006 33.682c11.09 13.301 14.52 30.712 9.4 47.773"/><path d="M232.594 30.779c-10.637 0 -20.968 5.089 -29.095 14.324a6.13 6.13 0 0 0 9.198 8.096c11.697 -13.307 28.097 -13.307 39.793 0a6.106 6.106 0 0 0 8.641 0.551 6.124 6.124 0 0 0 0.551 -8.647c-8.12 -9.235 -18.451 -14.324 -29.089 -14.324"/></g></svg>