<?xml version="1.0" encoding="UTF-8"?><svg id="Layer_1" xmlns="http://www.w3.org/2000/svg" viewBox="0 0 300 300"><defs><style>.cls-1{fill:none;stroke:#87acb4;stroke-linecap:round;stroke-linejoin:round;stroke-width:5.67px;}</style></defs><path class="cls-1" d="M245.31,224.42c-4.24-8.66-8.93-22.79-8.93-22.79-.77-2.31.58-4,3.01-3.77,0,0,7.09.68,10.05-.07,4.75-1.18,7.65-6,6.45-10.75-1.21-4.76-6.02-7.64-10.78-6.45-2.94.75-8.86,4.69-8.86,4.69-2.05,1.38-4.04.49-4.47-1.9,0,0-2.25-14.67-2.6-24.29-.5-.22-1.43-1.3-2.03-1.28-9.57.56-22.26,4.17-22.26,4.17-2.42.42-3.27,2.41-1.91,4.43,0,0,3.96,5.92,4.7,8.88,1.2,4.76-1.69,9.58-6.44,10.77-4.76,1.19-9.58-1.69-10.76-6.45-.76-2.95-.05-10.04-.05-10.04.23-2.42-1.47-3.78-3.79-3.01,0,0-14.14,4.7-22.79,8.93,4.24,8.64,9.28,22.63,9.28,22.63.75,2.3-.61,4.02-3.02,3.77,0,0-7.09-.69-10.04.05-4.75,1.21-7.64,6.02-6.44,10.78,1.19,4.75,6,7.63,10.76,6.44,2.95-.73,8.86-4.7,8.86-4.7,2.04-1.34,4.04-.49,4.45,1.91,0,0,.35,13.42.84,23.02.02.4,1.63.91,2.05,1.27,22.03-3.45,43.67-8.89,64.73-16.24Z"/><path class="cls-1" d="M137.06,172.26c-.7-.44-1.21-1.1-1.54-1.02-9.71,2.24-23.62,4.5-23.62,4.45-2.54.16-3.88-1.6-3-3.89,0,0,2.56-6.66,2.57-9.72.04-4.89-3.92-8.9-8.8-9.02-4.89-.13-9.03,3.67-9.23,8.57-.14,3.05,2.05,9.84,2.05,9.84.78,2.32-.67,4.01-3.2,3.72,0,.04-15.38-1.81-24.92-4.71,1.26,9.57,1.75,24.94,1.75,24.94.02,2.44-1.96,3.61-4.39,2.58,0,.02-7.01-3.02-10.27-3.37-5.26-.55-9.98,2.89-10.58,7.74-.6,4.88,3.33,9.35,8.76,9.92,3.38.36,11-1.36,11-1.37,2.59-.61,4.4.85,4.02,3.26,0,0-4.06,13.66-7.04,22.89-.1.28,1.21.72,1.53,1.01,25.49,2.15,51.08,2.79,76.64,1.95v-2.02c2.01-9.51,2.65-22.34,2.65-22.34.1-2.43-1.85-3.69-4.36-2.78,0,.01-7.37,2.6-10.78,2.64-5.46.08-9.86-3.9-9.84-8.81.03-4.89,4.31-8.85,9.59-8.95,3.29-.02,10.61,2.17,10.61,2.16,2.53.73,4.35-.66,4.05-3.07,0,0-1.28-15.28-3.66-24.61Z"/><path class="cls-1" d="M94.72,123.97c1.16-9.56,4.91-23.96,4.91-23.96.62-2.37,2.69-3.04,4.61-1.53,0,0,5.56,4.43,8.45,5.43,4.63,1.58,9.67-.89,11.26-5.53,1.58-4.64-.88-9.68-5.51-11.27-2.91-.98-10.01-.89-10.01-.89-2.42.03-3.65-1.78-2.69-4.03,0,0,5.87-13.67,10.82-21.95.18.03,1.2-.92,1.38-.9,9.56,1.24,22.62,5.91,22.62,5.91,2.37.62,3.05,2.69,1.54,4.58,0,0-4.44,5.56-5.42,8.47-1.59,4.62.87,9.66,5.52,11.24,4.63,1.6,9.68-.88,11.27-5.5,1-2.9.9-10.02.9-10.02-.03-2.42,1.77-3.64,4.01-2.69,0,0,13.71,5.43,21.98,10.37-4.96,8.27-10.82,21.94-10.82,21.94-.96,2.25.26,4.06,2.69,4.02,0,0,7.12-.1,10.02.89,4.62,1.61,7.09,6.63,5.51,11.29-1.59,4.63-6.64,7.1-11.28,5.5-2.88-.99-8.45-5.42-8.45-5.42-1.9-1.52-3.97-.83-4.6,1.54,0,0-2.27,13.54-3.55,23.07-.04.31-1.31.59-1.35.91-9.57-1.16-23.95-4.59-23.95-4.59-2.36-.62-3.05-2.7-1.52-4.59,0,0,4.43-5.58,5.4-8.46,1.61-4.63-.87-9.69-5.51-11.27-4.63-1.6-9.68.88-11.28,5.53-.99,2.88-.9,10-.9,10,.03,2.44-1.77,3.63-4.03,2.69,0,0-13.74-5.85-22.01-10.81Z"/></svg>