<?xml version="1.0" encoding="UTF-8"?><svg id="Layer_1" xmlns="http://www.w3.org/2000/svg" viewBox="0 0 300 300"><defs><style>.cls-1{stroke-linecap:round;stroke-linejoin:round;}.cls-1,.cls-2{fill:none;stroke:#fff;stroke-width:2.83px;}.cls-2{stroke-miterlimit:10;}</style></defs><line class="cls-2" x1="78.53" y1="139.57" x2="221.49" y2="139.57"/><line class="cls-2" x1="94.52" y1="138.3" x2="94.52" y2="202.69"/><line class="cls-2" x1="116.71" y1="138.3" x2="116.71" y2="202.69"/><line class="cls-2" x1="138.91" y1="138.3" x2="138.91" y2="202.69"/><line class="cls-2" x1="161.09" y1="138.3" x2="161.09" y2="202.69"/><line class="cls-2" x1="183.27" y1="138.3" x2="183.27" y2="202.69"/><line class="cls-2" x1="205.49" y1="138.3" x2="205.49" y2="202.69"/><rect class="cls-2" x="78.59" y="202.01" width="142.91" height="13.38"/><path class="cls-2" d="M78.53,222.46c0,1.97-1.61,3.56-3.55,3.56h-7.44c-1.94,0-3.54-1.59-3.54-3.56v-94.64c0-1.98,1.6-3.56,3.54-3.56h7.44c1.94,0,3.55,1.58,3.55,3.56v94.64Z"/><path class="cls-2" d="M236,222.46c0,1.97-1.59,3.56-3.54,3.56h-7.41c-1.98,0-3.56-1.59-3.56-3.56v-94.64c0-1.98,1.58-3.56,3.56-3.56h7.41c1.95,0,3.54,1.58,3.54,3.56v94.64Z"/><line class="cls-2" x1="78.59" y1="154.23" x2="221.49" y2="154.23"/><path class="cls-2" d="M116.06,102.4c.35-.75.95-.75,1.31,0l1.22,2.44c.36.74,1.33,1.44,2.13,1.55l2.72.4c.81.12.99.69.4,1.26l-1.96,1.92c-.59.59-.95,1.69-.82,2.49l.47,2.73c.13.79-.36,1.15-1.08.77l-2.41-1.27c-.74-.4-1.92-.4-2.65,0l-2.43,1.27c-.72.38-1.21.02-1.06-.77l.47-2.73c.14-.81-.25-1.91-.82-2.49l-1.95-1.92c-.59-.57-.42-1.14.4-1.26l2.7-.4c.82-.12,1.79-.81,2.16-1.55l1.22-2.44Z"/><line class="cls-1" x1="116.71" y1="73.98" x2="116.71" y2="102.49"/><path class="cls-1" d="M94.87,98.64c.29-1.37.74-2.72,1.29-3.98.58-1.27,1.28-2.47,2.08-3.61.79-1.11,1.71-2.16,2.72-3.13,1.01-.98,2.09-1.84,3.29-2.59,1.2-.75,2.46-1.4,3.8-1.94,1.33-.54,2.74-.98,4.18-1.24,1.46-.28,2.97-.44,4.5-.44s3.05.15,4.49.44c1.46.27,2.87.7,4.2,1.24,1.34.54,2.61,1.19,3.78,1.94,1.19.75,2.31,1.61,3.31,2.59.99.97,1.92,2.02,2.72,3.13.8,1.14,1.49,2.34,2.04,3.61.58,1.26,1.02,2.61,1.3,3.98"/><path class="cls-2" d="M98.65,102.96c0,2.4-1.92,4.33-4.33,4.33s-4.34-1.92-4.34-4.33,1.93-4.33,4.34-4.33,4.33,1.93,4.33,4.33Z"/><path class="cls-2" d="M143.45,102.96c0,2.4-1.94,4.33-4.33,4.33s-4.34-1.92-4.34-4.33,1.94-4.33,4.34-4.33,4.33,1.93,4.33,4.33Z"/></svg>