<?xml version="1.0" encoding="UTF-8"?><svg id="Layer_1" xmlns="http://www.w3.org/2000/svg" viewBox="0 0 300 300"><defs><style>.cls-1{fill:none;stroke:#fff;stroke-linecap:round;stroke-linejoin:round;stroke-width:5.67px;}.cls-1,.cls-2{fill-rule:evenodd;}.cls-2{fill:#fff;stroke-width:0px;}</style></defs><g id="thermometer"><path class="cls-1" d="M147.73,245.01c-3.25-.7-6.52-1.25-9.7-2.28-19.34-6.28-33.1-23.66-34.72-43.91-1.65-20.56,9.23-39.98,27.69-49.14,2.05-1.02,2.59-2.18,2.58-4.34-.07-27.1-.07-54.2-.02-81.3.02-9.32,6.55-17.34,15.57-19.4,12.48-2.85,24.43,6.5,24.53,19.38.12,16.33.03,32.65.03,48.98,0,11.1.01,22.2-.03,33.31,0,1.39.37,2.17,1.71,2.86,16.94,8.77,26.76,22.57,28.5,41.65,2.32,25.39-15.78,49.92-43.26,53.9-.38.06-.75.19-1.12.29h-11.76Z"/><path class="cls-2" d="M193.75,82.38c-1.5,0-3-.05-4.5.01-1.48.07-2.12-.47-2.09-2.03.15-6.41-.91-5.37,5.27-5.47,2.09-.03,4.17.03,6.26-.01,1.38-.03,2.05.46,2.02,1.92-.14,6.58.8,5.43-5.21,5.59-.59.02-1.17,0-1.76,0v-.02Z"/><path class="cls-2" d="M193.94,67.91c-1.56,0-3.13-.05-4.69.01-1.46.06-2.13-.44-2.09-2.02.17-6.35-.92-5.38,5.27-5.48,2.02-.03,4.04.04,6.05,0,1.51-.03,2.27.47,2.24,2.14-.14,6.31.74,5.23-5.22,5.36-.52.01-1.04,0-1.56,0h0Z"/><path class="cls-2" d="M193.98,89.36c1.5,0,2.99,0,4.49,0,.45,0,1.07-.11,1.33.13,1.86,1.68.59,3.89.84,5.85.15,1.23-.83,1.48-1.82,1.48-3.32.02-6.64.01-9.96.03-1.24,0-1.71-.6-1.69-1.82.12-6.75-.95-5.55,5.44-5.67.46,0,.91,0,1.37,0Z"/><path class="cls-2" d="M193.97,111.09c-1.7,0-3.39-.04-5.09,0-1.27.04-1.72-.53-1.71-1.76.07-6.52-.83-5.42,5.23-5.5,2.09-.03,4.18.05,6.26-.03,1.54-.06,2.06.61,2.04,2.1-.05,6.18.57,5.09-4.98,5.18-.59.01-1.17,0-1.76,0Z"/><path class="cls-2" d="M193.99,125.57c-1.7,0-3.4-.04-5.09.01-1.26.03-1.74-.51-1.73-1.76.08-6.61-.83-5.39,5.22-5.51,2.09-.04,4.18.03,6.27-.03,1.36-.04,2.06.4,2.05,1.88-.07,6.52.72,5.29-5.14,5.4-.52.01-1.05,0-1.57,0h0Z"/><path class="cls-2" d="M193.92,132.8c1.7,0,3.4.03,5.09-.01,1.15-.03,1.71.46,1.68,1.61,0,.07,0,.13,0,.2-.04,6.59.73,5.34-5.08,5.45-2.22.04-4.44-.03-6.66,0-1.22.02-1.8-.46-1.78-1.72.13-6.78-.88-5.35,5.18-5.55.52-.02,1.05,0,1.57,0h0Z"/><path class="cls-2" d="M150,117.24c0-17.24,0-34.48.01-51.72,0-.84.02-1.72.25-2.51.46-1.6,2.16-2.58,3.84-2.36,1.76.24,3.01,1.55,3.07,3.5.09,3.2.05,6.4.05,9.6,0,31.93,0,63.87-.03,95.8,0,1.41.09,2.41,1.83,2.86,9.97,2.54,16.47,10.21,17.43,20.46,1.08,11.44-6.59,21.28-16.67,23.97-10.99,2.94-22.51-2.36-27.03-12.38-6.01-13.34,1.09-28.33,15.25-32,1.77-.46,2.02-1.36,2.02-2.91-.04-17.44-.02-34.87-.02-52.31h-.01Z"/></g></svg>